<svg xmlns="http://www.w3.org/2000/svg" viewBox="0 0 24 24">
  <path d="M20.1 3.2L17.2 6c-1.5-1.8-3.7-3-6.2-3-4.4 0-8 3.6-8 8 0 2.5 1.2 4.8 3 6.2l-2.9 2.9.7.7 17-17-.7-.6zM4 11c0-3.9 3.1-7 7-7 2.3 0 4.3 1.1 5.6 2.7L15 8.3V7h-2v3.3l-1 1V6h-2v7h.3l-1 1H7v1h1.3l-1.6 1.6C5.1 15.3 4 13.3 4 11z M7 9h2v4H7zM16.5 16.8C18 15.3 19 13.3 19 11c0-1.3-.3-2.6-.9-3.7l-.7.8c.4.9.6 1.8.6 2.9 0 3.9-3.1 7-7 7-.9 0-1.8-.2-2.7-.5l-.7.8c1 .5 2.2.8 3.4.8 1.8 0 3.4-.6 4.7-1.6l4.9 4.9.7-.7-4.8-4.9z M10.7 15H15v-1h-3.3zM15 10.5l-2 2.1v.4h2z"/>
  
</svg>