<svg xmlns="http://www.w3.org/2000/svg" viewBox="0 0 24 24"><path d="M22 14c0 3.314-2.686 6-6 6-1.544 0-2.937-.6-4-1.557V20l-4-1v-6L2 4h16l-2.715 4.072c.237-.03.47-.072.715-.072 3.314 0 6 2.686 6 6zm-5.87-9H3.87l4.964 7.445.168.252v5.523l2 .5v-1.41c-.63-.95-1-2.086-1-3.31 0-2.556 1.605-4.724 3.857-5.588L16.13 5zm-5.117 9c0 2.754 2.233 4.987 4.987 4.987s4.987-2.233 4.987-4.987S18.754 9.013 16 9.013 11.013 11.246 11.013 14zm7.225-2.984l.746.746L16.746 14l2.238 2.238-.746.746L16 14.746l-2.238 2.238-.746-.746L15.254 14l-2.238-2.238.746-.746L16 13.254l2.238-2.238z"/></svg>