<svg xmlns="http://www.w3.org/2000/svg" viewBox="0 0 24 24">
    
    <path d="M18 9c-1.02 0-1.918-.512-2.46-1.29l-6.777 3.12c.152.36.237.755.237 1.17 0 .447-.104.868-.28 1.25l6.772 3.11C16.028 15.542 16.95 15 18 15c1.657 0 3 1.343 3 3s-1.343 3-3 3-3-1.343-3-3c0-.25.04-.49.097-.722l-6.948-3.19C7.602 14.648 6.842 15 6 15c-1.657 0-3-1.343-3-3s1.343-3 3-3c.877 0 1.66.383 2.208.984l6.914-3.182C15.052 6.545 15 6.28 15 6c0-1.657 1.343-3 3-3s3 1.343 3 3-1.343 3-3 3zm0 11c1.105 0 2-.895 2-2s-.895-2-2-2-2 .895-2 2 .895 2 2 2zM6 10c-1.105 0-2 .895-2 2s.895 2 2 2 2-.895 2-2-.895-2-2-2zm12-6c-1.105 0-2 .895-2 2s.895 2 2 2 2-.895 2-2-.895-2-2-2z"/>

</svg>