<svg xmlns="http://www.w3.org/2000/svg" viewBox="0 0 24 24" >
<path d="M15.7,12.8c0.3-0.1,0.7-0.2,1.1-0.2c-1-0.9-2.2-1.5-3.5-1.9c1.2-0.8,2-2.2,2-3.8c0-2.5-1.8-4.5-4-4.5s-4,2-4,4.5
	c0,1.6,0.8,3,1.9,3.8c-2.8,0.7-5.2,2.9-6.5,5.9c-0.1,0.3-0.3,0.6-0.4,0.9c2.3,0.7,5.2,1.3,8.3,1.4c-0.1-0.3-0.1-0.5-0.1-0.8v-0.3
	c-2.6-0.1-4.9-0.4-6.8-1c1.4-3.1,4.1-5.2,7.4-5.3l-0.8,4.3l0.5,0.9c0.3-0.7,0.7-1.4,1.3-2l-0.6-3.3C13,11.4,14.5,11.9,15.7,12.8z
	 M8.3,6.9c0-1.9,1.3-3.5,3-3.5s3,1.6,3,3.5s-1.3,3.5-3,3.5S8.3,8.8,8.3,6.9z M21.4,18.6v-1.1h-1.2c-0.1-0.5-0.3-1-0.6-1.4l0.4-0.4
	l0.4-0.4l-0.8-0.8l-0.4,0.4l-0.4,0.4c-0.4-0.3-0.9-0.5-1.4-0.6v-1.2h-1.1v1.2c-0.5,0.1-1,0.3-1.4,0.6l-0.4-0.4l-0.4-0.4l-0.8,0.8
	l0.4,0.4l0.4,0.4c-0.3,0.4-0.5,0.9-0.6,1.4h-1.2v1.1h1.2c0.1,0.5,0.3,1,0.6,1.4l-0.4,0.4l-0.4,0.4l0.8,0.8l0.8-0.8
	c0.4,0.3,0.9,0.5,1.4,0.6v1.2h1.1v-1.2c0.5-0.1,1-0.3,1.4-0.6l0.4,0.4l0.4,0.4l0.8-0.8L19.7,20c0.3-0.4,0.5-0.9,0.6-1.4H21.4z
	 M17,19.7c-0.9,0-1.7-0.7-1.7-1.7c0-0.9,0.7-1.7,1.7-1.7s1.7,0.7,1.7,1.7C18.7,18.9,17.9,19.7,17,19.7z"/>
</svg>
