<?xml version="1.0" encoding="utf-8"?>
<!-- Generator: Adobe Illustrator 21.0.0, SVG Export Plug-In . SVG Version: 6.00 Build 0)  -->
<svg version="1.1" id="Layer_1" xmlns="http://www.w3.org/2000/svg" xmlns:xlink="http://www.w3.org/1999/xlink" x="0px" y="0px"
	 viewBox="0 0 24 24" style="enable-background:new 0 0 24 24;" xml:space="preserve">
<g id="icon_Help">
	<path id="Shape-12" d="M12,5c3.9,0,7,3.1,7,7c0,3.9-3.1,7-7,7c-3.9,0-7-3.1-7-7S8.4,5,12,5 M12,4c-4.4,0-8,3.6-8,8c0,4.4,3.6,8,8,8
		c4.4,0,8-3.6,8-8C20,7.6,16.4,4,12,4L12,4z M12,17c-0.6,0-1-0.5-1-1c0-0.6,0.5-1,1-1c0.6,0,1,0.5,1,1C13,16.6,12.6,17,12,17z
		 M13,14L13,14c0,0-1.8,0-2,0l0,0c0-0.5,0.3-1.4,0.9-2c0.6-0.6,1.1-1.3,1.1-2c0-0.6-0.3-1-1-1c-1.2,0-0.9,1.7-1,2H9
		c0-2,0.6-3.6,3-3.6c2,0,3,1.3,3,2.6C15,12,13,12.7,13,14z"/>
</g>
</svg>
