<svg xmlns="http://www.w3.org/2000/svg" viewBox="0 0 24 24">
    <path d="M19 11v-1h3v1h-3zm-3.004 3.975h-1.008v1.978L7 14.806V19H4v-5.055c-.064.01-.127.032-.19.032h-.868C2.392 13.977 2 13.55 2 13V9c0-.55.392-1.19.942-1.19h.87c.157 0 .318.045.473.11l10.703-2.967v2.04h1.008c.552 0 1 .447 1 1v5.982c0 .552-.448 1-1 1zM4 9H3v4l1-.03V9zm1 9h1v-3.463l-1-.268V18zm8.988-11.73L5 8.812v4.344l8.988 2.468V6.27zm2.007 1.723h-1.007v5.98l1.007.002V7.993zm1.955-.176l2.6-1.5.5.866-2.6 1.5-.5-.866zm3.1 6l-.5.866-2.6-1.5.5-.866 2.6 1.5z" />
</svg>