<?xml version="1.0" encoding="utf-8"?>
<!-- Generator: Adobe Illustrator 21.0.0, SVG Export Plug-In . SVG Version: 6.00 Build 0)  -->
<svg version="1.1" id="Layer_1" xmlns="http://www.w3.org/2000/svg" xmlns:xlink="http://www.w3.org/1999/xlink" x="0px" y="0px"
	 viewBox="0 0 24 24" style="enable-background:new 0 0 24 24;" xml:space="preserve">
<g>
	<path d="M6.2,12L5,13c0-0.2,0-0.3,0-0.5C5,8.9,7.9,6,11.5,6c1.9,0,3.5,0.8,4.7,2l0.9-0.5C15.7,6,13.7,5,11.5,5C7.4,5,4,8.4,4,12.5
		c0,0.2,0,0.4,0,0.6L2.8,12L2,12.8v0L4.5,15L7,12.8L6.2,12z"/>
	<path d="M21,12.2L18.5,10L16,12.2l0.8,0.8l1.1-1c0,0.2,0,0.3,0,0.5c0,3.6-2.9,6.5-6.5,6.5c-1.9,0-3.5-0.8-4.7-2l-0.9,0.5
		C7.3,19,9.3,20,11.5,20c4.1,0,7.5-3.4,7.5-7.5c0-0.2,0-0.4,0-0.6l1.2,1.1L21,12.2z"/>
</g>
</svg>
