<svg height="512pt" viewBox="0 0 512 512" width="512pt" xmlns="http://www.w3.org/2000/svg"><path d="m200 288h-192c-4.425781 0-8-3.574219-8-8v-272c0-4.425781 3.574219-8 8-8h151.992188c2.128906 0 4.160156.839844 5.65625 2.34375l40.007812 40c1.503906 1.496094 2.34375 3.527344 2.34375 5.65625v232c0 4.425781-3.574219 8-8 8zm-184-16h176v-220.6875l-35.320312-35.3125h-140.679688zm0 0"/><path d="m200 56h-40c-4.425781 0-8-3.574219-8-8s3.574219-8 8-8h40c4.425781 0 8 3.574219 8 8s-3.574219 8-8 8zm0 0"/><path d="m160 56c-4.425781 0-8-3.574219-8-8v-40c0-4.425781 3.574219-8 8-8s8 3.574219 8 8v40c0 4.425781-3.574219 8-8 8zm0 0"/><path d="m504 512h-192c-4.425781 0-8-3.574219-8-8v-272c0-4.425781 3.574219-8 8-8h151.992188c2.128906 0 4.160156.839844 5.65625 2.34375l40.007812 40c1.503906 1.496094 2.34375 3.527344 2.34375 5.65625v232c0 4.425781-3.574219 8-8 8zm-184-16h176v-220.6875l-35.320312-35.3125h-140.679688zm0 0"/><path d="m504 280h-40c-4.425781 0-8-3.574219-8-8s3.574219-8 8-8h40c4.425781 0 8 3.574219 8 8s-3.574219 8-8 8zm0 0"/><path d="m464 280c-4.425781 0-8-3.574219-8-8v-40c0-4.425781 3.574219-8 8-8s8 3.574219 8 8v40c0 4.425781-3.574219 8-8 8zm0 0"/><path d="m152 128h-96c-4.425781 0-8-3.574219-8-8s3.574219-8 8-8h96c4.425781 0 8 3.574219 8 8s-3.574219 8-8 8zm0 0"/><path d="m152 168h-96c-4.425781 0-8-3.574219-8-8s3.574219-8 8-8h96c4.425781 0 8 3.574219 8 8s-3.574219 8-8 8zm0 0"/><path d="m104 208h-48c-4.425781 0-8-3.574219-8-8s3.574219-8 8-8h48c4.425781 0 8 3.574219 8 8s-3.574219 8-8 8zm0 0"/><path d="m464 376h-112c-4.425781 0-8-3.574219-8-8s3.574219-8 8-8h112c4.425781 0 8 3.574219 8 8s-3.574219 8-8 8zm0 0"/><path d="m464 416h-112c-4.425781 0-8-3.574219-8-8s3.574219-8 8-8h112c4.425781 0 8 3.574219 8 8s-3.574219 8-8 8zm0 0"/><path d="m464 456h-112c-4.425781 0-8-3.574219-8-8s3.574219-8 8-8h112c4.425781 0 8 3.574219 8 8s-3.574219 8-8 8zm0 0"/><path d="m464 344h-112c-4.425781 0-8-3.574219-8-8s3.574219-8 8-8h112c4.425781 0 8 3.574219 8 8s-3.574219 8-8 8zm0 0"/><path d="m352 456c-4.425781 0-8-3.574219-8-8v-112c0-4.425781 3.574219-8 8-8s8 3.574219 8 8v112c0 4.425781-3.574219 8-8 8zm0 0"/><path d="m408 456c-4.425781 0-8-3.574219-8-8v-80c0-4.425781 3.574219-8 8-8s8 3.574219 8 8v80c0 4.425781-3.574219 8-8 8zm0 0"/><path d="m464 456c-4.425781 0-8-3.574219-8-8v-112c0-4.425781 3.574219-8 8-8s8 3.574219 8 8v112c0 4.425781-3.574219 8-8 8zm0 0"/><path d="m104 416c-4.425781 0-8-3.574219-8-8v-96c0-4.425781 3.574219-8 8-8s8 3.574219 8 8v96c0 4.425781-3.574219 8-8 8zm0 0"/><path d="m280 416h-176c-4.425781 0-8-3.574219-8-8s3.574219-8 8-8h176c4.425781 0 8 3.574219 8 8s-3.574219 8-8 8zm0 0"/><path d="m256 440c-2.046875 0-4.097656-.785156-5.65625-2.34375-3.128906-3.128906-3.128906-8.183594 0-11.3125l24-24c3.128906-3.128906 8.183594-3.128906 11.3125 0s3.128906 8.183594 0 11.3125l-24 24c-1.558594 1.558594-3.609375 2.34375-5.65625 2.34375zm0 0"/><path d="m280 416c-2.046875 0-4.097656-.785156-5.65625-2.34375l-24-24c-3.128906-3.128906-3.128906-8.183594 0-11.3125s8.183594-3.128906 11.3125 0l24 24c3.128906 3.128906 3.128906 8.183594 0 11.3125-1.558594 1.558594-3.609375 2.34375-5.65625 2.34375zm0 0"/><path d="m408 208c-4.425781 0-8-3.574219-8-8v-96c0-4.425781 3.574219-8 8-8s8 3.574219 8 8v96c0 4.425781-3.574219 8-8 8zm0 0"/><path d="m408 112h-176c-4.425781 0-8-3.574219-8-8s3.574219-8 8-8h176c4.425781 0 8 3.574219 8 8s-3.574219 8-8 8zm0 0"/><path d="m232 112c-2.046875 0-4.097656-.785156-5.65625-2.34375-3.128906-3.128906-3.128906-8.183594 0-11.3125l24-24c3.128906-3.128906 8.183594-3.128906 11.3125 0s3.128906 8.183594 0 11.3125l-24 24c-1.558594 1.558594-3.609375 2.34375-5.65625 2.34375zm0 0"/><path d="m256 136c-2.046875 0-4.097656-.785156-5.65625-2.34375l-24-24c-3.128906-3.128906-3.128906-8.183594 0-11.3125s8.183594-3.128906 11.3125 0l24 24c3.128906 3.128906 3.128906 8.183594 0 11.3125-1.558594 1.558594-3.609375 2.34375-5.65625 2.34375zm0 0"/></svg>