<?xml version="1.0" encoding="iso-8859-1"?>
<!-- Generator: Adobe Illustrator 19.0.0, SVG Export Plug-In . SVG Version: 6.00 Build 0)  -->
<svg version="1.1" id="Capa_1" xmlns="http://www.w3.org/2000/svg" xmlns:xlink="http://www.w3.org/1999/xlink" x="0px" y="0px"
	 viewBox="0 0 490 490" style="enable-background:new 0 0 490 490;" xml:space="preserve">
<g>
	<path d="M145.316,256.489l-25.295,25.295l14.743,14.743l25.296-25.296c20.41,17.415,46.209,28.69,74.515,30.928v35.713h20.851
		v-35.713c28.306-2.239,54.105-13.513,74.514-30.929l25.297,25.297l14.743-14.743l-25.297-25.297
		c17.416-20.408,28.691-46.205,30.93-74.509h35.707v-20.851h-35.707c-2.239-28.31-13.515-54.111-30.933-74.521l25.3-25.295
		l-14.743-14.742l-25.299,25.296c-20.409-17.416-46.207-28.69-74.512-30.929V5.223h-20.851v35.712
		c-28.306,2.239-54.105,13.513-74.515,30.929l-25.296-25.296l-14.743,14.742l25.296,25.296
		c-17.419,20.41-28.696,46.211-30.935,74.521H78.675v20.851h35.707C116.622,210.283,127.898,236.081,145.316,256.489z M245,61.372
		c60.752,0,110.176,49.43,110.176,110.181c0,60.751-49.424,110.17-110.176,110.17c-60.756,0-110.181-49.419-110.181-110.17
		C134.819,110.802,184.244,61.372,245,61.372z"/>
	<path d="M245,238.117c36.703,0,66.565-29.861,66.565-66.564c0-36.713-29.862-66.575-66.565-66.575
		c-36.708,0-66.57,29.862-66.57,66.575C178.43,208.256,208.292,238.117,245,238.117z M245,125.829
		c25.209,0,45.714,20.515,45.714,45.724c0,25.208-20.505,45.713-45.714,45.713c-25.209,0-45.719-20.505-45.719-45.713
		C199.281,146.344,219.791,125.829,245,125.829z"/>
	<path d="M421.674,348.125h-87.309c-34.131,0-62.496,25.159-67.531,57.9H223.16c-5.035-32.741-33.399-57.9-67.531-57.9H68.321
		C30.65,348.125,0,378.78,0,416.451s30.65,68.326,68.321,68.326h87.309c34.132,0,62.496-25.159,67.531-57.9h43.675
		c5.035,32.741,33.399,57.9,67.531,57.9h87.309c37.676,0,68.326-30.655,68.326-68.326S459.35,348.125,421.674,348.125z
		 M155.629,463.926H68.321c-26.175,0-47.469-21.299-47.469-47.475c0-26.176,21.294-47.475,47.469-47.475h87.309
		c22.594,0,41.541,15.873,46.307,37.049h-61.879v20.851h61.879C197.17,448.052,178.223,463.926,155.629,463.926z M421.674,463.926
		h-87.309c-22.594,0-41.541-15.873-46.307-37.049h61.879v-20.851h-61.879c4.766-21.176,23.713-37.049,46.307-37.049h87.309
		c26.175,0,47.475,21.299,47.475,47.475C469.149,442.626,447.849,463.926,421.674,463.926z"/>
</g>
<g>
</g>
<g>
</g>
<g>
</g>
<g>
</g>
<g>
</g>
<g>
</g>
<g>
</g>
<g>
</g>
<g>
</g>
<g>
</g>
<g>
</g>
<g>
</g>
<g>
</g>
<g>
</g>
<g>
</g>
</svg>
