<svg xmlns="http://www.w3.org/2000/svg" viewBox="0 0 24 24">
    


<path d="M20.000,21.000 C20.000,21.000 4.000,21.000 4.000,21.000 C3.448,21.000 3.000,20.552 3.000,20.000 C3.000,20.000 3.000,4.000 3.000,4.000 C3.000,3.448 3.448,3.000 4.000,3.000 C4.000,3.000 20.000,3.000 20.000,3.000 C20.552,3.000 21.000,3.448 21.000,4.000 C21.000,4.000 21.000,20.000 21.000,20.000 C21.000,20.552 20.552,21.000 20.000,21.000 zM20.000,4.000 L4.000,4.000 L4.000,20.000 L20.000,20.000 L20.000,4.000 z M16.000,19.000 L16.000,16.000 L19.000,16.000 L19.000,19.000 L16.000,19.000 zM16.000,12.000 L19.000,12.000 L19.000,15.000 L16.000,15.000 L16.000,12.000 zM16.000,5.000 L19.000,5.000 L19.000,11.000 L16.000,11.000 L16.000,5.000 zM12.000,16.000 L15.000,16.000 L15.000,19.000 L12.000,19.000 L12.000,16.000 zM12.000,12.000 L15.000,12.000 L15.000,15.000 L12.000,15.000 L12.000,12.000 zM5.000,5.000 L15.000,5.000 L15.000,11.000 L5.000,11.000 L5.000,5.000 zM7.000,19.000 L5.000,19.000 L5.000,12.000 L7.000,12.000 L7.000,19.000 zM11.000,15.000 L8.000,15.000 L8.000,12.000 L11.000,12.000 L11.000,15.000 zM11.000,19.000 L8.000,19.000 L8.000,16.000 L11.000,16.000 L11.000,19.000 z"/>






</svg>