<?xml version="1.0" encoding="iso-8859-1"?>
<!-- Generator: Adobe Illustrator 19.0.0, SVG Export Plug-In . SVG Version: 6.00 Build 0)  -->
<svg version="1.1" id="Capa_1" xmlns="http://www.w3.org/2000/svg" xmlns:xlink="http://www.w3.org/1999/xlink" x="0px" y="0px"
	 viewBox="0 0 512 512" style="enable-background:new 0 0 512 512;" xml:space="preserve">
<g>
	<g>
		<circle cx="377" cy="436" r="15"/>
	</g>
</g>
<g>
	<g>
		<path d="M377,301c-8.284,0-15,6.716-15,15v60c0,8.284,6.716,15,15,15s15-6.716,15-15v-60C392,307.716,385.284,301,377,301z"/>
	</g>
</g>
<g>
	<g>
		<path d="M392,241.838V75c0-49.238-98.601-75-196-75S0,25.762,0,75v361c0,16.275,11.001,39.398,63.413,57.135
			C99.361,505.3,146.448,512,196,512c44.302,0,86.766-5.136,120.442-14.511C335.029,506.979,355.65,512,377,512
			c74.471,0,135-61.426,135-136C512,306.631,459.406,249.324,392,241.838z M196,30c103.847,0,166,28.968,166,45
			c0,15.717-61.05,45-166,45C92.153,120,30,91.032,30,75C30,59.283,91.05,30,196,30z M30,116.818
			C66.586,138.716,131.551,150,196,150s129.414-11.284,166-33.182V166c0,15.717-61.05,45-166,45c-103.847,0-166-28.968-166-45
			V116.818z M30,207.818C66.586,229.716,131.551,241,196,241s129.414-11.284,166-33.182v34.02
			c-38.3,4.253-71.815,24.59-93.619,54.09C246.078,299.249,221.206,301,196,301c-103.847,0-166-28.968-166-45V207.818z M30,297.818
			C66.586,319.716,131.551,331,196,331c18.632,0,37.134-0.913,54.699-2.667C245.084,343.163,242,359.227,242,376
			c0,4.36,0.21,8.69,0.616,12.98C227.662,390.306,211.815,391,196,391c-103.847,0-166-28.968-166-45V297.818z M196,482
			c-104,0-166-29.973-166-46v-48.181C66.586,409.716,131.551,421,196,421c17.924,0,35.913-0.857,52.781-2.472
			c7.153,21.746,19.481,40.6,35.142,55.703C257.532,479.241,226.905,482,196,482z M377,482c-58.148,0-105-47.813-105-106
			c0-57.897,47.103-105,105-105c57.897,0,105,47.103,105,105C482,434.449,434.897,482,377,482z"/>
	</g>
</g>
<g>
</g>
<g>
</g>
<g>
</g>
<g>
</g>
<g>
</g>
<g>
</g>
<g>
</g>
<g>
</g>
<g>
</g>
<g>
</g>
<g>
</g>
<g>
</g>
<g>
</g>
<g>
</g>
<g>
</g>
</svg>
